<?xml version="1.0" standalone="no"?>
<!DOCTYPE svg PUBLIC "-//W3C//DTD SVG 20010904//EN"
 "http://www.w3.org/TR/2001/REC-SVG-20010904/DTD/svg10.dtd">
<svg version="1.0" xmlns="http://www.w3.org/2000/svg"
 width="512.000000pt" height="512.000000pt" viewBox="0 0 512.000000 512.000000"
 preserveAspectRatio="xMidYMid meet">

<g transform="translate(0.000000,512.000000) scale(0.100000,-0.100000)"
fill="#000000" stroke="none">
<path d="M4205 4039 c-165 -143 -310 -267 -322 -275 -20 -14 -26 -12 -96 40
-90 67 -263 163 -378 212 -436 184 -962 189 -1401 15 -197 -79 -343 -176 -499
-331 -124 -123 -167 -180 -248 -327 -67 -120 -110 -243 -140 -391 -13 -63
-121 -386 -310 -922 -159 -454 -293 -833 -296 -843 -7 -16 49 -17 1090 -17
944 0 1112 2 1204 16 266 39 480 152 691 364 99 99 123 130 171 220 198 367
168 787 -84 1163 -219 328 -580 505 -951 467 -125 -13 -198 -32 -302 -80 -179
-82 -306 -215 -384 -398 -75 -178 -73 -396 6 -584 115 -276 328 -438 573 -438
100 1 154 11 227 46 256 121 324 461 134 676 -49 57 -94 70 -138 42 -68 -44
-71 -92 -8 -163 65 -74 80 -141 51 -237 -28 -95 -112 -164 -216 -179 -60 -9
-159 16 -221 56 -75 49 -169 155 -210 239 -46 96 -61 163 -60 270 2 211 119
394 315 490 123 60 190 75 342 75 108 0 143 -4 205 -24 181 -56 334 -162 441
-305 209 -277 270 -592 173 -886 -88 -271 -366 -520 -669 -600 -278 -72 -591
-38 -860 95 -301 149 -554 436 -675 766 -53 142 -73 266 -73 434 0 209 29 329
124 521 174 349 518 604 942 696 89 19 132 22 327 22 195 0 238 -3 327 -22
285 -62 559 -194 767 -369 38 -32 76 -63 85 -70 14 -10 74 38 398 315 210 180
382 331 382 335 1 13 -112 146 -124 146 -5 0 -145 -117 -310 -260z m-2951
-1976 c129 -257 364 -521 574 -645 l47 -28 -542 0 -542 0 105 308 c58 169 132
384 164 477 32 94 61 178 65 188 5 12 19 -18 45 -97 21 -62 59 -154 84 -203z"/>
</g>
</svg>
